<svg id="visual" viewBox="0 0 900 600" width="900" height="600" xmlns="http://www.w3.org/2000/svg" xmlns:xlink="http://www.w3.org/1999/xlink" version="1.1"><g stroke-width="1" stroke-linejoin="bevel"><path d="M412 271L465 223L395 183Z" fill="#112e42" stroke="#112e42"></path><path d="M395 183L327 234L412 271Z" fill="#00101c" stroke="#00101c"></path><path d="M465 223L464 137L395 183Z" fill="#15384f" stroke="#15384f"></path><path d="M396 410L494 323L412 271Z" fill="#00101c" stroke="#00101c"></path><path d="M412 271L494 323L465 223Z" fill="#15384f" stroke="#15384f"></path><path d="M465 223L567 169L464 137Z" fill="#277297" stroke="#277297"></path><path d="M464 137L421 80L395 183Z" fill="#081a28" stroke="#081a28"></path><path d="M395 183L297 69L327 234Z" fill="#19435d" stroke="#19435d"></path><path d="M327 234L298 305L412 271Z" fill="#205a7a" stroke="#205a7a"></path><path d="M494 323L567 169L465 223Z" fill="#00101c" stroke="#00101c"></path><path d="M464 137L566 62L421 80Z" fill="#246688" stroke="#246688"></path><path d="M321 385L396 410L412 271Z" fill="#19435d" stroke="#19435d"></path><path d="M298 305L321 385L412 271Z" fill="#0c2435" stroke="#0c2435"></path><path d="M421 80L297 69L395 183Z" fill="#246688" stroke="#246688"></path><path d="M327 234L200 174L298 305Z" fill="#0c2435" stroke="#0c2435"></path><path d="M567 169L566 62L464 137Z" fill="#1d4e6b" stroke="#1d4e6b"></path><path d="M421 80L369 0L297 69Z" fill="#0c2435" stroke="#0c2435"></path><path d="M396 410L506 427L494 323Z" fill="#277297" stroke="#277297"></path><path d="M494 323L637 290L567 169Z" fill="#1d4e6b" stroke="#1d4e6b"></path><path d="M297 69L200 174L327 234Z" fill="#15384f" stroke="#15384f"></path><path d="M298 305L184 415L321 385Z" fill="#277297" stroke="#277297"></path><path d="M571 427L637 290L494 323Z" fill="#081a28" stroke="#081a28"></path><path d="M567 169L702 62L566 62Z" fill="#0c2435" stroke="#0c2435"></path><path d="M531 0L369 0L421 80Z" fill="#00101c" stroke="#00101c"></path><path d="M566 62L531 0L421 80Z" fill="#205a7a" stroke="#205a7a"></path><path d="M506 427L571 427L494 323Z" fill="#081a28" stroke="#081a28"></path><path d="M369 0L290 0L297 69Z" fill="#19435d" stroke="#19435d"></path><path d="M297 69L181 70L200 174Z" fill="#15384f" stroke="#15384f"></path><path d="M637 290L674 192L567 169Z" fill="#15384f" stroke="#15384f"></path><path d="M566 62L633 0L531 0Z" fill="#0c2435" stroke="#0c2435"></path><path d="M200 174L165 319L298 305Z" fill="#277297" stroke="#277297"></path><path d="M396 410L491 493L506 427Z" fill="#0c2435" stroke="#0c2435"></path><path d="M506 427L491 493L571 427Z" fill="#081a28" stroke="#081a28"></path><path d="M391 537L491 493L396 410Z" fill="#0c2435" stroke="#0c2435"></path><path d="M391 537L396 410L336 530Z" fill="#1d4e6b" stroke="#1d4e6b"></path><path d="M571 427L683 310L637 290Z" fill="#081a28" stroke="#081a28"></path><path d="M637 290L683 310L674 192Z" fill="#15384f" stroke="#15384f"></path><path d="M212 0L181 70L297 69Z" fill="#246688" stroke="#246688"></path><path d="M200 174L119 160L165 319Z" fill="#081a28" stroke="#081a28"></path><path d="M165 319L184 415L298 305Z" fill="#19435d" stroke="#19435d"></path><path d="M290 0L212 0L297 69Z" fill="#15384f" stroke="#15384f"></path><path d="M64 101L119 160L181 70Z" fill="#081a28" stroke="#081a28"></path><path d="M181 70L119 160L200 174Z" fill="#1d4e6b" stroke="#1d4e6b"></path><path d="M165 319L67 391L184 415Z" fill="#1d4e6b" stroke="#1d4e6b"></path><path d="M702 62L633 0L566 62Z" fill="#081a28" stroke="#081a28"></path><path d="M336 530L396 410L321 385Z" fill="#277297" stroke="#277297"></path><path d="M230 522L336 530L321 385Z" fill="#081a28" stroke="#081a28"></path><path d="M674 192L702 62L567 169Z" fill="#277297" stroke="#277297"></path><path d="M818 97L702 62L674 192Z" fill="#00101c" stroke="#00101c"></path><path d="M119 160L80 298L165 319Z" fill="#1d4e6b" stroke="#1d4e6b"></path><path d="M571 427L737 427L683 310Z" fill="#205a7a" stroke="#205a7a"></path><path d="M491 493L602 524L571 427Z" fill="#0c2435" stroke="#0c2435"></path><path d="M532 600L602 524L491 493Z" fill="#1d4e6b" stroke="#1d4e6b"></path><path d="M702 62L689 0L633 0Z" fill="#19435d" stroke="#19435d"></path><path d="M107 528L230 522L184 415Z" fill="#081a28" stroke="#081a28"></path><path d="M184 415L230 522L321 385Z" fill="#112e42" stroke="#112e42"></path><path d="M336 530L365 600L391 537Z" fill="#277297" stroke="#277297"></path><path d="M212 0L126 0L181 70Z" fill="#1d4e6b" stroke="#1d4e6b"></path><path d="M119 160L0 163L80 298Z" fill="#1d4e6b" stroke="#1d4e6b"></path><path d="M126 0L64 101L181 70Z" fill="#15384f" stroke="#15384f"></path><path d="M676 521L737 427L571 427Z" fill="#19435d" stroke="#19435d"></path><path d="M683 310L833 218L674 192Z" fill="#00101c" stroke="#00101c"></path><path d="M307 600L365 600L336 530Z" fill="#297ea6" stroke="#297ea6"></path><path d="M391 537L532 600L491 493Z" fill="#1d4e6b" stroke="#1d4e6b"></path><path d="M0 330L67 391L80 298Z" fill="#00101c" stroke="#00101c"></path><path d="M80 298L67 391L165 319Z" fill="#205a7a" stroke="#205a7a"></path><path d="M191 600L307 600L230 522Z" fill="#277297" stroke="#277297"></path><path d="M230 522L307 600L336 530Z" fill="#277297" stroke="#277297"></path><path d="M365 600L532 600L391 537Z" fill="#205a7a" stroke="#205a7a"></path><path d="M602 524L676 521L571 427Z" fill="#246688" stroke="#246688"></path><path d="M624 600L676 521L602 524Z" fill="#00101c" stroke="#00101c"></path><path d="M789 500L781 406L737 427Z" fill="#00101c" stroke="#00101c"></path><path d="M737 427L781 406L683 310Z" fill="#1d4e6b" stroke="#1d4e6b"></path><path d="M702 62L809 0L689 0Z" fill="#277297" stroke="#277297"></path><path d="M836 272L833 218L683 310Z" fill="#1d4e6b" stroke="#1d4e6b"></path><path d="M833 218L818 97L674 192Z" fill="#1d4e6b" stroke="#1d4e6b"></path><path d="M781 406L836 272L683 310Z" fill="#00101c" stroke="#00101c"></path><path d="M0 135L0 163L64 101Z" fill="#205a7a" stroke="#205a7a"></path><path d="M64 101L0 163L119 160Z" fill="#297ea6" stroke="#297ea6"></path><path d="M0 0L0 135L64 101Z" fill="#205a7a" stroke="#205a7a"></path><path d="M676 521L789 500L737 427Z" fill="#0c2435" stroke="#0c2435"></path><path d="M532 600L624 600L602 524Z" fill="#15384f" stroke="#15384f"></path><path d="M0 163L0 330L80 298Z" fill="#277297" stroke="#277297"></path><path d="M0 515L107 528L67 391Z" fill="#0c2435" stroke="#0c2435"></path><path d="M67 391L107 528L184 415Z" fill="#246688" stroke="#246688"></path><path d="M107 528L191 600L230 522Z" fill="#277297" stroke="#277297"></path><path d="M0 330L0 392L67 391Z" fill="#081a28" stroke="#081a28"></path><path d="M900 69L809 0L818 97Z" fill="#15384f" stroke="#15384f"></path><path d="M818 97L809 0L702 62Z" fill="#277297" stroke="#277297"></path><path d="M728 600L789 500L676 521Z" fill="#205a7a" stroke="#205a7a"></path><path d="M781 406L900 306L836 272Z" fill="#081a28" stroke="#081a28"></path><path d="M126 0L0 0L64 101Z" fill="#1d4e6b" stroke="#1d4e6b"></path><path d="M900 306L900 173L833 218Z" fill="#1d4e6b" stroke="#1d4e6b"></path><path d="M833 218L900 173L818 97Z" fill="#246688" stroke="#246688"></path><path d="M900 306L833 218L836 272Z" fill="#1d4e6b" stroke="#1d4e6b"></path><path d="M624 600L728 600L676 521Z" fill="#112e42" stroke="#112e42"></path><path d="M900 401L900 306L781 406Z" fill="#112e42" stroke="#112e42"></path><path d="M0 515L79 600L107 528Z" fill="#0c2435" stroke="#0c2435"></path><path d="M107 528L79 600L191 600Z" fill="#297ea6" stroke="#297ea6"></path><path d="M900 173L900 69L818 97Z" fill="#297ea6" stroke="#297ea6"></path><path d="M0 392L0 515L67 391Z" fill="#15384f" stroke="#15384f"></path><path d="M900 498L900 401L789 500Z" fill="#246688" stroke="#246688"></path><path d="M789 500L900 401L781 406Z" fill="#246688" stroke="#246688"></path><path d="M900 69L900 0L809 0Z" fill="#205a7a" stroke="#205a7a"></path><path d="M728 600L817 600L789 500Z" fill="#081a28" stroke="#081a28"></path><path d="M817 600L900 498L789 500Z" fill="#15384f" stroke="#15384f"></path><path d="M0 515L0 600L79 600Z" fill="#297ea6" stroke="#297ea6"></path><path d="M817 600L900 600L900 498Z" fill="#1d4e6b" stroke="#1d4e6b"></path></g></svg>